<svg width="17px" height="17px" viewBox="23 683 17 17" version="1.1" xmlns="http://www.w3.org/2000/svg" xmlns:xlink="http://www.w3.org/1999/xlink">
    <path d="M31.5,699 C35.6421356,699 39,695.642136 39,691.5 C39,687.357864 35.6421356,684 31.5,684 C27.3578644,684 24,687.357864 24,691.5 C24,695.642136 27.3578644,699 31.5,699 Z M31.5,700 C26.8055796,700 23,696.19442 23,691.5 C23,686.80558 26.8055796,683 31.5,683 C36.1944204,683 40,686.80558 40,691.5 C40,696.19442 36.1944204,700 31.5,700 Z M31.005,693.101 L31.536,693.101 L31.626,692.057 C32.562,691.859 33.327,691.292 33.327,690.185 L33.327,690.167 C33.327,689.123 32.562,688.376 31.392,688.376 C30.564,688.376 29.979,688.736 29.502,689.249 L29.988,689.798 C30.348,689.402 30.789,689.123 31.356,689.123 C32.058,689.123 32.517,689.573 32.517,690.194 L32.517,690.221 C32.517,690.95 31.959,691.409 30.924,691.499 L30.879,691.553 L31.005,693.101 Z M30.798,695 L31.743,695 L31.743,693.956 L30.798,693.956 L30.798,695 Z" id="Combined-Shape" stroke="none" fill="#FFFFFF " fill-rule="nonzero"></path>
</svg>