<svg width="17px" height="17px" viewBox="23 633 17 17" version="1.1" xmlns="http://www.w3.org/2000/svg" xmlns:xlink="http://www.w3.org/1999/xlink">
    <path d="M31.5,649 C35.6421356,649 39,645.642136 39,641.5 C39,637.357864 35.6421356,634 31.5,634 C27.3578644,634 24,637.357864 24,641.5 C24,645.642136 27.3578644,649 31.5,649 Z M31.5,650 C26.8055796,650 23,646.19442 23,641.5 C23,636.80558 26.8055796,633 31.5,633 C36.1944204,633 40,636.80558 40,641.5 C40,646.19442 36.1944204,650 31.5,650 Z M31.005,643.101 L31.536,643.101 L31.626,642.057 C32.562,641.859 33.327,641.292 33.327,640.185 L33.327,640.167 C33.327,639.123 32.562,638.376 31.392,638.376 C30.564,638.376 29.979,638.736 29.502,639.249 L29.988,639.798 C30.348,639.402 30.789,639.123 31.356,639.123 C32.058,639.123 32.517,639.573 32.517,640.194 L32.517,640.221 C32.517,640.95 31.959,641.409 30.924,641.499 L30.879,641.553 L31.005,643.101 Z M30.798,645 L31.743,645 L31.743,643.956 L30.798,643.956 L30.798,645 Z" id="Combined-Shape-Copy" stroke="none" fill="#5B5B5B " fill-rule="nonzero"></path>
</svg>