<svg width="11px" height="16px" viewBox="0 0 11 16" version="1.1" xmlns="http://www.w3.org/2000/svg" xmlns:xlink="http://www.w3.org/1999/xlink">
    <defs></defs>
    <g id="Page-2" stroke="none" stroke-width="1" fill="none" fill-rule="evenodd">
        <path d="M5.07715525,14.3282915 C4.94367353,14.2871536 4.82939833,14.2241314 4.71667317,14.1343286 C4.77707949,14.1824515 4.46338047,13.9133966 4.35033377,13.8381007 L4.1497915,13.7045276 L4.1497915,13.4635732 C4.1497915,13.1755622 4.09060538,12.8545438 3.97519616,12.4972617 C3.83707783,12.069677 3.63374954,11.6244364 3.3227945,11.0355013 C3.27465521,10.9443276 3.22495331,10.8514595 3.1607012,10.7323301 C3.08025984,10.5834251 3.08025984,10.5834251 3.00164244,10.4376395 C2.87391746,10.2001753 2.78800026,10.03546 2.71186722,9.87925587 C2.49891453,9.44233533 2.39167227,9.12823578 2.39167227,8.84313725 C2.39167227,7.17887451 3.83166956,5.84411766 5.59167226,5.84411766 C7.35167496,5.84411766 8.79167225,7.17887451 8.79167225,8.84313725 C8.79167225,9.16682681 8.66706001,9.51439423 8.42172855,9.98033599 C8.33321401,10.1484458 8.23312806,10.3248131 8.08549772,10.5761685 C8.19632104,10.3874807 7.80301746,11.0546917 7.7135899,11.2098983 C7.12433141,12.2325898 6.82385037,12.9566549 6.76512768,13.6581513 L6.74435827,13.906261 L6.5231222,14.0204731 C6.46701184,14.0494398 6.4283897,14.0743903 6.39547792,14.1004802 C6.37776637,14.1145206 6.30648192,14.1781561 6.29106442,14.1909589 C6.18009545,14.2831081 6.06666528,14.3375429 5.91914155,14.365859 C5.9220341,14.3455974 5.92352944,14.3248448 5.92352944,14.3037002 L5.92352944,13.2845351 C5.92352944,13.2583835 5.92122057,13.2328247 5.91679416,13.2080483 C6.04629581,12.4695279 6.37698676,11.7269156 6.93377355,10.7605806 C7.96205254,8.97594419 7.89167227,9.10961276 7.89167227,8.84313725 C7.89167227,7.69183069 6.86923569,6.74411764 5.59167226,6.74411764 C4.31410884,6.74411764 3.29167225,7.69183069 3.29167225,8.84313725 C3.29167225,9.05926074 3.2265548,8.92565758 4.11866925,10.6152831 C4.45189599,11.2463998 4.67411707,11.7330112 4.83162392,12.2206185 C4.9461864,12.5752792 5.01767243,12.9109826 5.04120289,13.2323682 C5.05322615,13.2418967 5.06522275,13.2514712 5.07709182,13.2610012 C5.07667936,13.2687877 5.07647056,13.276634 5.07647056,13.2845351 L5.07647056,14.3037002 C5.07647056,14.3119584 5.0767008,14.3201574 5.07715525,14.3282915 Z M5.5,15.627451 C4.76903489,15.627451 4.17647059,15.0383375 4.17647059,14.3037002 L4.17647059,13.2845351 C4.17647059,12.5534477 4.76393874,11.9607843 5.5,11.9607843 C6.23096511,11.9607843 6.82352941,12.5498977 6.82352941,13.2845351 L6.82352941,14.3037002 C6.82352941,15.0347876 6.23606126,15.627451 5.5,15.627451 Z M5.5,14.727451 C5.73667378,14.727451 5.92352944,14.5400657 5.92352944,14.3037002 L5.92352944,13.2845351 C5.92352944,13.0485202 5.73547652,12.8607843 5.5,12.8607843 C5.26332622,12.8607843 5.07647056,13.0481696 5.07647056,13.2845351 L5.07647056,14.3037002 C5.07647056,14.539715 5.26452348,14.727451 5.5,14.727451 Z M5.94999999,4.53823528 L5.05000001,4.53823528 L5.05000001,0.991176483 L5.94999999,0.991176483 L5.94999999,4.53823528 Z M8.54680334,5.61273104 L7.7673805,5.16273106 L9.5409099,2.09088803 L10.3203327,2.54088802 L8.54680334,5.61273104 Z M2.98699941,5.16273106 L2.20757657,5.61273104 L0.434047166,2.54088802 L1.21347001,2.09088803 L2.98699941,5.16273106 Z" id="Rectangle" fill="#757575 " fill-rule="nonzero"></path>
    </g>
</svg>